<svg xmlns="http://www.w3.org/2000/svg" viewBox="0 0 128 128" fill="none">
  <rect width="128" height="128" rx="30" fill="#EEF6FF"/>
  <circle cx="26" cy="27" r="3" fill="#FFFFFF"/>
  <circle cx="102" cy="34" r="2.5" fill="#FFFFFF"/>
  <circle cx="108" cy="78" r="2" fill="#FFFFFF"/>

  <path
    d="M64 95.5 C61.6 105.6 62.1 116.1 65.1 126"
    stroke="#FFFFFF"
    stroke-width="2.2"
    stroke-linecap="round"
    fill="none"
  />

  <path
    fill="#2563EB"
    d="M64 15
       C84.6 15 101.4 30.1 103.8 50.3
       C106.8 75.8 89.9 94 64 95.5
       C38.1 94 21.2 75.8 24.2 50.3
       C26.6 30.1 43.4 15 64 15Z"
  />
  <path
    fill="#1D4ED8"
    d="M83.5 22.3
       C96.2 29.2 103.6 43 103.8 58.6
       C104 79 88.8 93.4 64 95.5
       C74.8 87.2 80.5 74.9 81.2 58.1
       C81.8 43.2 81.4 31.6 83.5 22.3Z"
    opacity="0.72"
  />
  <ellipse cx="47.4" cy="35.7" rx="14" ry="17" transform="rotate(16 47.4 35.7)" fill="#7DD3FC" opacity="0.72"/>
  <ellipse cx="44.2" cy="31.7" rx="7" ry="8.6" transform="rotate(16 44.2 31.7)" fill="#FFFFFF" opacity="0.84"/>
  <path
    d="M84.8 31.6 C92 38.5 94.8 48.3 93.2 59.5"
    stroke="#93C5FD"
    stroke-width="5.2"
    stroke-linecap="round"
    opacity="0.7"
  />
  <path
    fill="#1E40AF"
    d="M64 94.2
       L55.8 108
       C54.7 109.9 56 112.3 58.2 112.3
       H69.8
       C72 112.3 73.3 109.9 72.2 108Z"
  />
</svg>
